<?xml version="1.0" encoding="UTF-8" standalone="no"?>
<!-- Created with Inkscape (http://www.inkscape.org/) -->

<svg
   width="210mm"
   height="297mm"
   viewBox="0 0 210 297"
   version="1.1"
   id="svg5"
   inkscape:version="1.1.1 (3bf5ae0d25, 2021-09-20)"
   sodipodi:docname="volume-icons.svg"
   xmlns:inkscape="http://www.inkscape.org/namespaces/inkscape"
   xmlns:sodipodi="http://sodipodi.sourceforge.net/DTD/sodipodi-0.dtd"
   xmlns="http://www.w3.org/2000/svg"
   xmlns:svg="http://www.w3.org/2000/svg">
  <sodipodi:namedview
     id="namedview7"
     pagecolor="#ffffff"
     bordercolor="#666666"
     borderopacity="1.0"
     inkscape:pageshadow="2"
     inkscape:pageopacity="0.0"
     inkscape:pagecheckerboard="0"
     inkscape:document-units="mm"
     showgrid="false"
     inkscape:zoom="0.12471942"
     inkscape:cx="1094.4567"
     inkscape:cy="950.13271"
     inkscape:window-width="1366"
     inkscape:window-height="745"
     inkscape:window-x="-8"
     inkscape:window-y="-8"
     inkscape:window-maximized="1"
     inkscape:current-layer="layer1" />
  <defs
     id="defs2">
    <pattern
       id="EMFhbasepattern"
       patternUnits="userSpaceOnUse"
       width="6"
       height="6"
       x="0"
       y="0" />
    <pattern
       id="EMFhbasepattern-3"
       patternUnits="userSpaceOnUse"
       width="6"
       height="6"
       x="0"
       y="0" />
    <pattern
       id="EMFhbasepattern-2"
       patternUnits="userSpaceOnUse"
       width="6"
       height="6"
       x="0"
       y="0" />
    <pattern
       id="EMFhbasepattern-4"
       patternUnits="userSpaceOnUse"
       width="6"
       height="6"
       x="0"
       y="0" />
  </defs>
  <g
     inkscape:label="Layer 1"
     inkscape:groupmode="layer"
     id="layer1">
    <g
       id="g844"
       transform="translate(-360.79042,91.637592)"
       inkscape:export-filename="C:\Users\mried\mute.png"
       inkscape:export-xdpi="12.095238"
       inkscape:export-ydpi="12.095238"
       style="fill:#000000">
      <path
         style="fill:#000000;fill-opacity:1;fill-rule:nonzero;stroke:none;stroke-width:0.264583"
         d="M 141.19906,176.78313 C 84.137251,134.89077 84.137251,134.89077 84.137251,134.89077 c -37.394443,0 -37.394443,0 -37.394443,0 -15.522223,0 -28.045833,-12.61181 -28.045833,-28.13403 0,-66.410423 0,-66.410423 0,-66.410423 0,-15.52222 12.52361,-28.134027 28.045833,-28.134027 34.660416,0 34.660416,0 34.660416,0 58.472916,-50.00625 58.472916,-50.00625 58.472916,-50.00625 14.81667,-12.7 37.65903,-2.116667 37.65903,17.286111 0,178.946529 0,178.946529 0,178.946529 0,18.69722 -21.25486,29.45695 -36.33611,18.34445 z"
         id="path827" />
      <path
         style="fill:#000000;fill-opacity:1;fill-rule:nonzero;stroke:none;stroke-width:0.264583"
         d="m 18.696975,72.537287 c 0,34.219453 0,34.219453 0,34.219453 0,15.52222 12.52361,28.13403 28.045833,28.13403 37.394443,0 37.394443,0 37.394443,0 57.061809,41.89236 57.061809,41.89236 57.061809,41.89236 15.08125,11.1125 36.33611,0.35277 36.33611,-18.34445 0,-85.901393 0,-85.901393 0,-85.901393 z"
         id="path829" />
      <path
         style="fill:#000000;fill-opacity:1;fill-rule:nonzero;stroke:none;stroke-width:0.264583"
         d="m 154.69281,187.10188 c -5.99723,0 -11.90625,-1.94028 -16.93334,-5.55625 0,-0.0882 0,-0.0882 0,-0.0882 C 82.285168,140.7116 82.285168,140.7116 82.285168,140.7116 c -35.54236,0 -35.54236,0 -35.54236,0 -18.697223,0 -33.866667,-15.25764 -33.866667,-33.95486 0,-66.410423 0,-66.410423 0,-66.410423 0,-18.69722 15.169444,-33.9548602 33.866667,-33.9548602 32.455556,0 32.455556,0 32.455556,0 56.885416,-48.6833338 56.885416,-48.6833338 56.885416,-48.6833338 8.64305,-7.320138 20.37292,-8.995833 30.60347,-4.233333 10.31875,4.7625 16.66875,14.728473 16.66875,26.017361 0,178.946529 0,178.946529 0,178.946529 0,10.84792 -5.99722,20.6375 -15.69861,25.57639 -4.14514,2.02847 -8.55486,3.08681 -12.96458,3.08681 z m -10.05417,-14.99306 c 5.29167,3.88056 11.90625,4.40972 17.72708,1.41111 5.82084,-2.91041 9.34861,-8.55486 9.34861,-15.08125 0,-178.946529 0,-178.946529 0,-178.946529 0,-6.790972 -3.70416,-12.523611 -9.87777,-15.345833 -6.17361,-2.910417 -12.96459,-1.940278 -18.16806,2.469445 -60.148609,51.417361 -60.148609,51.417361 -60.148609,51.417361 -36.777083,0 -36.777083,0 -36.777083,0 -12.259028,0 -22.225,10.054166 -22.225,22.313193 0,66.410423 0,66.410423 0,66.410423 0,12.25903 9.965972,22.225 22.225,22.225 39.334723,0 39.334723,0 39.334723,0 58.561109,43.12708 58.561109,43.12708 58.561109,43.12708 z"
         id="path831" />
    </g>
    <g
       id="g870"
       transform="translate(-337.30714,-199.41429)"
       inkscape:export-filename="C:\Users\mried\low-vol.png"
       inkscape:export-xdpi="12.095238"
       inkscape:export-ydpi="12.095238"
       style="fill:#000000">
      <path
         style="fill:#000000;fill-opacity:1;fill-rule:nonzero;stroke:none;stroke-width:0.264583"
         d="m 472.23244,150.26527 c -56.97361,-41.89236 -56.97361,-41.89236 -56.97361,-41.89236 -37.48264,0 -37.48264,0 -37.48264,0 -15.43403,0 -28.04584,-12.61181 -28.04584,-28.13403 0,-66.41042 0,-66.41042 0,-66.41042 0,-15.5222204 12.61181,-28.134027 28.04584,-28.134027 34.66041,0 34.66041,0 34.66041,0 58.47292,-50.00625 58.47292,-50.00625 58.47292,-50.00625 14.81667,-12.7 37.65903,-2.116667 37.65903,17.286111 0,178.946526 0,178.946526 0,178.946526 0,18.69722 -21.25486,29.45695 -36.33611,18.34445 z"
         id="path849" />
      <path
         style="fill:#000000;fill-opacity:1;fill-rule:nonzero;stroke:none;stroke-width:0.264583"
         d="m 349.73035,43.19721 c 0,37.04167 0,37.04167 0,37.04167 0,15.52222 12.61181,28.13403 28.04584,28.13403 37.48264,0 37.48264,0 37.48264,0 56.97361,41.89236 56.97361,41.89236 56.97361,41.89236 15.08125,11.1125 36.33611,0.35277 36.33611,-18.34445 0,-88.72361 0,-88.72361 0,-88.72361 z"
         id="path851" />
      <path
         style="fill:#000000;fill-opacity:1;fill-rule:nonzero;stroke:none;stroke-width:0.264583"
         d="m 485.72619,160.58402 c -5.99723,0 -11.90625,-1.94028 -16.93334,-5.55625 0,-0.0882 0,-0.0882 0,-0.0882 -55.4743,-40.74583 -55.4743,-40.74583 -55.4743,-40.74583 -35.54236,0 -35.54236,0 -35.54236,0 -18.69722,0 -33.86667,-15.25764 -33.86667,-33.95486 0,-66.41042 0,-66.41042 0,-66.41042 0,-18.6972204 15.16945,-33.95486 33.86667,-33.95486 32.54375,0 32.54375,0 32.54375,0 56.79722,-48.683334 56.79722,-48.683334 56.79722,-48.683334 8.64305,-7.320139 20.37292,-8.995833 30.60347,-4.233333 10.31875,4.7625 16.66875,14.728473 16.66875,26.017361 0,178.946526 0,178.946526 0,178.946526 0,10.84792 -5.99722,20.6375 -15.69861,25.57639 -4.05694,2.02847 -8.55486,3.08681 -12.96458,3.08681 z m -10.05417,-14.99306 c 5.29167,3.88056 11.90625,4.40972 17.72708,1.41111 5.90903,-2.91041 9.34861,-8.55486 9.34861,-15.08125 0,-178.946526 0,-178.946526 0,-178.946526 0,-6.790972 -3.70416,-12.523611 -9.87777,-15.345833 -6.17361,-2.910417 -12.96459,-1.940278 -18.16806,2.469445 -60.14861,51.4173606 -60.14861,51.4173606 -60.14861,51.4173606 -36.77708,0 -36.77708,0 -36.77708,0 -12.25903,0 -22.225,10.054166 -22.225,22.3131934 0,66.41042 0,66.41042 0,66.41042 0,12.25903 9.96597,22.225 22.225,22.225 39.33472,0 39.33472,0 39.33472,0 z"
         id="path853" />
      <path
         style="fill:#000000;fill-opacity:1;fill-rule:nonzero;stroke:none;stroke-width:0.264583"
         d="m 539.08383,76.00554 c -1.32292,0 -2.73403,-0.52916 -3.79237,-1.4993 -2.46944,-2.11667 -2.64583,-5.82083 -0.52916,-8.20208 5.99722,-6.87917 9.17222,-14.72848 9.17222,-22.84237 0,-8.02569 -3.175,-15.875 -9.17222,-22.754163 -2.11667,-2.38125 -1.94028,-6.085417 0.52916,-8.202083 2.38125,-2.116667 6.08542,-1.940277 8.20209,0.529166 7.9375,8.995834 12.08264,19.49097 12.08264,30.42708 0,11.02431 -4.14514,21.51945 -12.08264,30.51528 -1.14653,1.32292 -2.73403,2.02847 -4.40972,2.02847 z"
         id="path855" />
    </g>
    <g
       id="g900"
       inkscape:export-filename="C:\Users\mried\med-vol.png"
       inkscape:export-xdpi="12.095238"
       inkscape:export-ydpi="12.095238"
       style="fill:#000000">
      <path
         style="fill:#000000;fill-opacity:1;fill-rule:nonzero;stroke:none;stroke-width:0.264583"
         d="m 371.44668,-76.727588 c -56.97361,-41.892362 -56.97361,-41.892362 -56.97361,-41.892362 -37.39445,0 -37.39445,0 -37.39445,0 -15.52222,0 -28.13402,-12.61181 -28.13402,-28.13403 0,-66.41042 0,-66.41042 0,-66.41042 0,-15.52222 12.6118,-28.13402 28.13402,-28.13402 34.57223,0 34.57223,0 34.57223,0 58.56111,-50.00625 58.56111,-50.00625 58.56111,-50.00625 14.72847,-12.7 37.57083,-2.11667 37.57083,17.28611 0,178.946522 0,178.946522 0,178.946522 0,18.69722 -21.25486,29.45695 -36.33611,18.34445 z"
         id="path875" />
      <path
         style="fill:#000000;fill-opacity:1;fill-rule:nonzero;stroke:none;stroke-width:0.264583"
         d="m 248.9446,-183.79565 c 0,37.04167 0,37.04167 0,37.04167 0,15.52222 12.6118,28.13403 28.13402,28.13403 37.39445,0 37.39445,0 37.39445,0 56.97361,41.892362 56.97361,41.892362 56.97361,41.892362 15.08125,11.1125 36.33611,0.35277 36.33611,-18.34445 0,-88.723612 0,-88.723612 0,-88.723612 z"
         id="path877" />
      <path
         style="fill:#000000;fill-opacity:1;fill-rule:nonzero;stroke:none;stroke-width:0.264583"
         d="m 384.94043,-66.408838 c -5.90903,0 -11.90625,-1.94028 -16.93333,-5.55625 0,-0.0882 0,-0.0882 0,-0.0882 -55.47431,-40.745832 -55.47431,-40.745832 -55.47431,-40.745832 -35.45417,0 -35.45417,0 -35.45417,0 -18.78541,0 -33.95486,-15.25764 -33.95486,-33.95486 0,-66.41042 0,-66.41042 0,-66.41042 0,-18.69722 15.16945,-33.95486 33.95486,-33.95486 32.45556,0 32.45556,0 32.45556,0 56.79722,-48.68333 56.79722,-48.68333 56.79722,-48.68333 8.64306,-7.32014 20.37292,-8.99583 30.69167,-4.23333 10.23056,4.7625 16.66875,14.72847 16.66875,26.01736 0,178.946522 0,178.946522 0,178.946522 0,10.84792 -6.08542,20.6375 -15.7868,25.57639 -4.05695,2.02847 -8.55487,3.08681 -12.96459,3.08681 z m -9.96597,-14.99306 c 5.29167,3.88056 11.81806,4.40972 17.72708,1.41111 5.82084,-2.91041 9.26042,-8.55486 9.26042,-15.08125 0,-178.946522 0,-178.946522 0,-178.946522 0,-6.79098 -3.70417,-12.52361 -9.87778,-15.34584 -6.17361,-2.91041 -12.96458,-1.94027 -18.07986,2.46945 -60.23681,51.41736 -60.23681,51.41736 -60.23681,51.41736 -36.68889,0 -36.68889,0 -36.68889,0 -12.34722,0 -22.31319,10.05417 -22.31319,22.31319 0,66.41042 0,66.41042 0,66.41042 0,12.25903 9.96597,22.225 22.31319,22.225 39.24653,0 39.24653,0 39.24653,0 58.64931,43.127082 58.64931,43.127082 58.64931,43.127082 z"
         id="path879" />
      <path
         style="fill:#000000;fill-opacity:1;fill-rule:nonzero;stroke:none;stroke-width:0.264583"
         d="m 455.05502,-134.31857 c -1.41112,0 -2.82223,-0.52916 -3.96875,-1.5875 -2.38125,-2.11666 -2.55764,-5.82083 -0.35278,-8.20208 10.31875,-11.28889 15.69861,-24.87083 15.69861,-39.42292 0,-14.46388 -5.37986,-28.04583 -15.69861,-39.33471 -2.20486,-2.38125 -2.02847,-6.08542 0.35278,-8.29028 2.38125,-2.11667 6.08541,-1.94028 8.29027,0.44097 12.25903,13.49375 18.78542,29.80972 18.78542,47.18402 0,17.4625 -6.52639,33.77848 -18.78542,47.27223 -1.14652,1.32291 -2.73402,1.94027 -4.32152,1.94027 z"
         id="path881" />
      <path
         style="fill:#000000;fill-opacity:1;fill-rule:nonzero;stroke:none;stroke-width:0.264583"
         d="m 438.29807,-150.98732 c -1.32292,0 -2.73403,-0.52916 -3.79236,-1.4993 -2.46944,-2.11667 -2.64583,-5.82083 -0.52917,-8.20208 5.99723,-6.87917 9.17223,-14.72848 9.17223,-22.84237 0,-8.02569 -3.175,-15.875 -9.17223,-22.75416 -2.11666,-2.38125 -1.94027,-6.08542 0.52917,-8.20208 2.38125,-2.11667 6.08542,-1.94028 8.20208,0.52916 7.9375,8.99584 12.08264,19.49097 12.08264,30.42708 0,11.02431 -4.14514,21.51945 -12.08264,30.51528 -1.14652,1.32292 -2.73402,2.02847 -4.40972,2.02847 z"
         id="path883" />
    </g>
    <g
       id="g934"
       transform="translate(-297,55.157143)"
       inkscape:export-filename="C:\Users\mried\high-vol.png"
       inkscape:export-xdpi="12.095238"
       inkscape:export-ydpi="12.095238"
       style="fill:#000000">
      <path
         style="fill:#000000;fill-opacity:1;fill-rule:nonzero;stroke:none;stroke-width:0.264583"
         d="m 423.49197,205.42241 c -57.06181,-41.89236 -57.06181,-41.89236 -57.06181,-41.89236 -37.39444,0 -37.39444,0 -37.39444,0 -15.52223,0 -28.13403,-12.61181 -28.13403,-28.13403 0,-66.410416 0,-66.410416 0,-66.410416 0,-15.52222 12.6118,-28.13403 28.13403,-28.13403 34.57222,0 34.57222,0 34.57222,0 58.56111,-50.0062486 58.56111,-50.0062486 58.56111,-50.0062486 14.72847,-12.7000004 37.57083,-2.1166664 37.57083,17.286109 0,178.9465256 0,178.9465256 0,178.9465256 0,18.69722 -21.25486,29.45695 -36.24791,18.34445 z"
         id="path905" />
      <path
         style="fill:#000000;fill-opacity:1;fill-rule:nonzero;stroke:none;stroke-width:0.264583"
         d="m 300.90169,98.354354 c 0,37.041666 0,37.041666 0,37.041666 0,15.52222 12.6118,28.13403 28.13403,28.13403 37.39444,0 37.39444,0 37.39444,0 57.06181,41.89236 57.06181,41.89236 57.06181,41.89236 14.99305,11.1125 36.24791,0.35277 36.24791,-18.34445 0,-88.723606 0,-88.723606 0,-88.723606 z"
         id="path907" />
      <path
         style="fill:#000000;fill-opacity:1;fill-rule:nonzero;stroke:none;stroke-width:0.264583"
         d="m 436.89752,215.74116 c -5.90903,0 -11.90625,-1.94028 -16.93333,-5.55625 0,-0.0882 0,-0.0882 0,-0.0882 -55.47431,-40.74583 -55.47431,-40.74583 -55.47431,-40.74583 -35.45416,0 -35.45416,0 -35.45416,0 -18.78542,0 -33.95487,-15.25764 -33.95487,-33.95486 0,-66.410416 0,-66.410416 0,-66.410416 0,-18.69722 15.16945,-33.95486 33.95487,-33.95486 32.45555,0 32.45555,0 32.45555,0 56.88542,-48.683335 56.88542,-48.683335 56.88542,-48.683335 8.55486,-7.320139 20.28472,-8.995834 30.60347,-4.233334 10.23056,4.7625 16.66875,14.7284734 16.66875,26.0173594 0,178.9465256 0,178.9465256 0,178.9465256 0,10.84792 -6.08542,20.6375 -15.78681,25.57639 -4.05694,2.02847 -8.46666,3.08681 -12.96458,3.08681 z m -9.96597,-14.99306 c 5.29167,3.88056 11.90625,4.40972 17.72708,1.41111 5.82084,-2.91041 9.26042,-8.55486 9.26042,-15.08125 0,-178.9465256 0,-178.9465256 0,-178.9465256 0,-6.79097 -3.70417,-12.523609 -9.87778,-15.345831 -6.17361,-2.9104174 -12.96458,-1.940278 -18.07986,2.469445 C 365.8128,46.672414 365.8128,46.672414 365.8128,46.672414 c -36.77708,0 -36.77708,0 -36.77708,0 -12.25903,0 -22.3132,10.05416 -22.3132,22.31319 0,66.410416 0,66.410416 0,66.410416 0,12.25903 10.05417,22.225 22.3132,22.225 39.24652,0 39.24652,0 39.24652,0 58.64931,43.12708 58.64931,43.12708 58.64931,43.12708 z"
         id="path909" />
      <path
         style="fill:#000000;fill-opacity:1;fill-rule:nonzero;stroke:none;stroke-width:0.264583"
         d="m 523.59266,164.41199 c -1.41111,0 -2.82222,-0.52917 -3.96875,-1.5875 -2.38125,-2.20486 -2.55764,-5.82083 -0.35278,-8.20208 14.72847,-15.9632 22.48959,-35.36598 22.48959,-56.003476 0,-20.5493 -7.76112,-39.95208 -22.48959,-55.91527 -2.20486,-2.38125 -2.02847,-6.08542 0.35278,-8.20209 2.38125,-2.20486 6.08542,-2.02847 8.29028,0.35278 16.66875,18.16806 25.57639,40.21667 25.57639,63.76458 0,23.636116 -8.90764,45.684726 -25.66459,63.852776 -1.05833,1.32292 -2.64583,1.94028 -4.23333,1.94028 z"
         id="path911" />
      <path
         style="fill:#000000;fill-opacity:1;fill-rule:nonzero;stroke:none;stroke-width:0.264583"
         d="m 507.0121,147.83143 c -1.41111,0 -2.82222,-0.52916 -3.96875,-1.5875 -2.38125,-2.11666 -2.55763,-5.82083 -0.35277,-8.20208 10.31875,-11.28889 15.7868,-24.87083 15.7868,-39.422916 0,-14.46388 -5.46805,-28.04583 -15.7868,-39.33472 -2.20486,-2.38125 -2.02848,-6.08542 0.35277,-8.29028 2.38125,-2.11666 6.08542,-1.94027 8.29028,0.44098 12.25903,13.49375 18.78542,29.80972 18.78542,47.18402 0,17.462496 -6.52639,33.778476 -18.78542,47.272226 -1.14653,1.32291 -2.73403,1.94027 -4.32153,1.94027 z"
         id="path913" />
      <path
         style="fill:#000000;fill-opacity:1;fill-rule:nonzero;stroke:none;stroke-width:0.264583"
         d="m 490.25516,131.16268 c -1.32292,0 -2.73403,-0.52916 -3.79236,-1.4993 -2.46945,-2.11667 -2.64583,-5.82083 -0.52917,-8.20208 5.99722,-6.87917 9.17222,-14.72848 9.17222,-22.842366 0,-8.02569 -3.175,-15.875 -9.17222,-22.75416 -2.11666,-2.38125 -1.94028,-6.08542 0.52917,-8.20209 2.38125,-2.11666 6.08542,-1.94027 8.20208,0.52917 7.9375,8.99583 12.08264,19.49097 12.08264,30.42708 0,11.024306 -4.14514,21.519446 -12.08264,30.515276 -1.14653,1.32292 -2.73403,2.02847 -4.40972,2.02847 z"
         id="path915" />
    </g>
  </g>
</svg>
